<svg width="20" height="21" viewBox="0 0 20 21" fill="none" xmlns="http://www.w3.org/2000/svg">
<g clip-path="url(#clip0)">
<path d="M13.2578 10.6171L20.0003 14.8796V6.17456L13.2578 10.6171Z" fill="#5F97CA"/>
<path d="M0.000488281 6.17456V14.8796L6.74299 10.6171L0.000488281 6.17456Z" fill="#5F97CA"/>
<path d="M18.7506 3.63965H1.25059C0.626836 3.63965 0.131836 4.10465 0.0380859 4.7034L10.0006 11.2671L19.9631 4.7034C19.8693 4.10465 19.3743 3.63965 18.7506 3.63965Z" fill="#5F97CA"/>
<path d="M12.1125 11.3723L10.3438 12.5373C10.2388 12.6061 10.12 12.6398 10 12.6398C9.88004 12.6398 9.76129 12.6061 9.65629 12.5373L7.88754 11.3711L0.0400391 16.3348C0.136289 16.9286 0.628789 17.3898 1.25004 17.3898H18.75C19.3713 17.3898 19.8638 16.9286 19.96 16.3348L12.1125 11.3723Z" fill="#5F97CA"/>
</g>
<defs>
<clipPath id="clip0">
<rect width="20" height="20" fill="white" transform="translate(0.000488281 0.514648)"/>
</clipPath>
</defs>
</svg>
