<svg width="20" height="21" viewBox="0 0 20 21" fill="none" xmlns="http://www.w3.org/2000/svg">
<g clip-path="url(#clip0)">
<path d="M10.0002 0.514648C5.83217 0.514648 2.44482 3.90199 2.44482 8.07006C2.44482 10.6137 3.91813 12.7418 5.63069 14.2277C6.17216 14.6936 7.11659 15.4366 7.96027 16.5321C8.89211 17.7536 9.7358 19.0632 10.0002 19.9446C10.2647 19.0632 11.1084 17.7536 12.0402 16.5321C12.8839 15.4366 13.8283 14.6936 14.3698 14.2277C16.0823 12.7418 17.5556 10.6137 17.5556 8.07006C17.5556 3.90199 14.1683 0.514648 10.0002 0.514648ZM10.0002 3.73829C10.5691 3.73829 11.1324 3.85034 11.6579 4.06803C12.1835 4.28572 12.661 4.60479 13.0633 5.00704C13.4655 5.40928 13.7846 5.88681 14.0023 6.41236C14.22 6.93792 14.332 7.5012 14.332 8.07006C14.332 8.63892 14.22 9.2022 14.0023 9.72776C13.7846 10.2533 13.4655 10.7308 13.0633 11.1331C12.661 11.5353 12.1835 11.8544 11.6579 12.0721C11.1324 12.2898 10.5691 12.4018 10.0002 12.4018C8.85138 12.4018 7.74958 11.9454 6.93721 11.1331C6.12485 10.3207 5.66847 9.21892 5.66847 8.07006C5.66847 6.9212 6.12485 5.8194 6.93721 5.00704C7.74958 4.19467 8.85138 3.73829 10.0002 3.73829Z" fill="#5F97CA"/>
</g>
<defs>
<clipPath id="clip0">
<rect width="20" height="20" fill="white" transform="translate(0 0.514648)"/>
</clipPath>
</defs>
</svg>
