<svg width="16" height="17" viewBox="0 0 16 17" fill="none" xmlns="http://www.w3.org/2000/svg">
<g clip-path="url(#clip0)">
<path fill-rule="evenodd" clip-rule="evenodd" d="M2.26705 0.994622C2.43105 0.830603 2.62805 0.703331 2.84499 0.621249C3.06192 0.539167 3.29383 0.504151 3.52533 0.518526C3.75683 0.5329 3.98263 0.596335 4.18774 0.704622C4.39286 0.81291 4.5726 0.963575 4.71505 1.14662L6.39605 3.30862C6.70505 3.70462 6.81405 4.22162 6.69205 4.70862L6.17905 6.76162C6.15237 6.86815 6.15373 6.97977 6.183 7.08562C6.21226 7.19146 6.26844 7.28793 6.34605 7.36562L8.65005 9.66862C8.72774 9.74624 8.82421 9.80241 8.93005 9.83168C9.0359 9.86094 9.14752 9.8623 9.25405 9.83562L11.3061 9.32262C11.5467 9.26251 11.7979 9.25792 12.0407 9.3092C12.2834 9.36048 12.5113 9.46629 12.7071 9.61862L14.8691 11.2996C15.6461 11.9036 15.7181 13.0526 15.0221 13.7476L14.0521 14.7176C13.3591 15.4106 12.3221 15.7156 11.3551 15.3756C8.88146 14.505 6.6356 13.0886 4.78405 11.2316C2.92669 9.38017 1.51 7.13431 0.639051 4.66062C0.299051 3.69362 0.604051 2.65662 1.29705 1.96262L2.26705 0.993622V0.994622Z" fill="#5F97CA"/>
</g>
<defs>
<clipPath id="clip0">
<rect width="16" height="16" fill="white" transform="translate(0 0.0146484)"/>
</clipPath>
</defs>
</svg>
